<svg width="1200" height="1200">
<path style="fill:#47704c; stroke:none;" d="M0 0L0 1200L1200 1200L1200 0L0 0z"/>
<path style="fill:#f03861; stroke:none;" d="M556 442L556 455L569 455L569 442L556 442M581 442L581 455L594 455L594 442L581 442M606 442L606 455L619 455L619 442L606 442M631 442L631 455L644 455L644 442L631 442M543 461L543 574L657 574L657 461L543 461M525 473L525 487L538 487L538 473L525 473M662 473L662 487L675 487L675 473L662 473z"/>
<path style="fill:#47704c; stroke:none;" d="M564.001 474.617C552.685 477.172 557.113 494.541 567.96 491.471C578.242 488.56 574.318 472.286 564.001 474.617z"/>
<path style="fill:#f03861; stroke:none;" d="M525 498L525 512L538 512L538 498L525 498M662 498L662 512L675 512L675 498L662 498M525 523L525 537L538 537L538 523L525 523M662 523L662 537L675 537L675 523L662 523z"/>
<path style="fill:#47704c; stroke:none;" d="M632.04 543.668C621.799 546.711 625.716 562.722 635.996 560.383C647.143 557.848 642.96 540.424 632.04 543.668z"/>
<path style="fill:#f03861; stroke:none;" d="M525 548L525 562L538 562L538 548L525 548M662 548L662 562L675 562L675 548L662 548M240 562L240 578L510 578L510 562L240 562M690 562L690 578L960 578L960 562L690 562M556 580L556 593L569 593L569 580L556 580M581 580L581 593L594 593L594 580L581 580M606 580L606 593L619 593L619 580L606 580M631 580L631 593L644 593L644 580L631 580M435 706L425 706C425 710.226 425.703 715.247 423.258 718.956C419.049 725.34 407.386 726.176 402.703 719.891C399.174 715.154 400 708.545 400 703C400 690.115 395.688 667.664 401.573 656.043C405.514 648.26 418.484 647.91 423.258 655.055C426.415 659.78 425 667.577 425 673L435 673C435 665.982 436.755 656.243 432.991 650.004C425.945 638.326 401.868 636.954 393.649 648.043C384.973 659.749 390 686.018 390 700C390 708.766 388.203 719.703 394.394 726.895C402.379 736.173 424.867 735.999 432.146 725.907C436.192 720.297 435 712.524 435 706M574 706L564 706C564 710.226 564.703 715.247 562.258 718.956C558.049 725.34 546.385 726.176 541.703 719.891C536.316 712.661 539 698.539 539 690L574 690C574 678.31 578.296 656.201 569.786 647.105C557.25 633.706 529.521 640.632 529.015 660C528.64 674.312 529 688.682 529 703C529 710.285 527.874 718.534 531.995 724.985C538.966 735.899 562.203 736.575 570.442 726.815C575.257 721.111 574 712.931 574 706M762 706L752 706C752 710.226 752.703 715.247 750.258 718.956C746.049 725.34 734.385 726.176 729.703 719.891C724.316 712.661 727 698.539 727 690L762 690C762 678.31 766.296 656.201 757.786 647.105C745.25 633.706 717.521 640.632 717.015 660C716.64 674.312 717 688.682 717 703C717 710.285 715.874 718.534 719.995 724.985C726.966 735.899 750.203 736.575 758.442 726.815C763.257 721.111 762 712.931 762 706M801 702L790 702C790 710.426 788.69 721.25 795.214 727.786C805.661 738.253 831.865 735.033 836.211 720C844.456 691.473 804.662 685.852 801.214 663C799.612 652.379 812.723 645.753 820.891 652.434C826.563 657.073 825 665.49 825 672C827.703 672 832.129 672.769 834.397 670.972C839.348 667.05 834.632 650.998 831.442 647.105C825.206 639.495 810.567 639.384 802 642.559C790.462 646.837 787.743 660.4 792.228 671C796.947 682.156 810.662 691.45 818.985 700C823.082 704.209 826.507 708.381 826.107 714.576C825.45 724.722 810.526 726.948 804.148 720.772C799.411 716.185 801 708.008 801 702M874 702L863 702C863 710.426 861.69 721.25 868.214 727.786C878.661 738.253 904.865 735.033 909.211 720C917.456 691.473 877.662 685.852 874.214 663C872.612 652.379 885.723 645.753 893.891 652.434C899.563 657.073 898 665.49 898 672C900.703 672 905.129 672.769 907.397 670.972C912.348 667.05 907.632 650.998 904.442 647.105C898.206 639.495 883.567 639.384 875 642.559C863.462 646.837 860.743 660.4 865.228 671C869.947 682.156 883.662 691.45 891.985 700C896.082 704.209 899.507 708.381 899.107 714.576C898.45 724.722 883.526 726.948 877.148 720.772C872.411 716.185 874 708.008 874 702M291 643L291 697C291 705.423 289.3 716.052 292.613 723.985C297.259 735.108 315.416 736.448 322.347 726.957C327.663 719.678 326 708.466 326 700L315 700C315 705.782 316.673 714.736 313.821 719.941C310.251 726.456 303.245 722.79 301.573 716.999C299.74 710.654 301 702.56 301 696L301 652L322 652L322 643L291 643M350 643L350 731L360 731L360 643L350 643M464 643L464 731L475 731C475 717.521 473.47 703.761 478 691L479 691L492.258 719L499.39 729.972L510 731L492.753 696L486.096 681L508 643C491.586 643 482.491 663.114 476 677L475 677L475 643L464 643M604 643L604 697C604 705.423 602.3 716.052 605.613 723.985C610.259 735.108 628.416 736.448 635.347 726.957C640.663 719.678 639 708.466 639 700L628 700C628 705.782 629.673 714.736 626.821 719.941C623.251 726.456 616.245 722.79 614.573 716.999C612.74 710.654 614 702.56 614 696L614 652L635 652L635 643L604 643M663 643L663 731L698 731C697.953 717.768 683.067 722 673 722L673 643L663 643z"/>
<path style="fill:#47704c; stroke:none;" d="M539 681L564 681C564 673.749 566.334 661.552 562.821 655.055C559.164 648.29 545.354 647.895 541.089 654.214C536.63 660.821 539 673.378 539 681M727 681L752 681C752 673.749 754.334 661.552 750.821 655.055C747.164 648.29 733.354 647.895 729.089 654.214C724.63 660.821 727 673.378 727 681z"/>
</svg>
